<?xml version="1.0" encoding="UTF-8" standalone="no"?>
<svg
   xmlns:dc="http://purl.org/dc/elements/1.1/"
   xmlns:cc="http://creativecommons.org/ns#"
   xmlns:rdf="http://www.w3.org/1999/02/22-rdf-syntax-ns#"
   xmlns:svg="http://www.w3.org/2000/svg"
   xmlns="http://www.w3.org/2000/svg"
   xmlns:sodipodi="http://sodipodi.sourceforge.net/DTD/sodipodi-0.dtd"
   xmlns:inkscape="http://www.inkscape.org/namespaces/inkscape"
   inkscape:version="1.0 (4035a4fb49, 2020-05-01)"
   sodipodi:docname="system.svg"
   id="svg161"
   viewBox="0 0 54 128"
   version="1.1">
  <metadata
     id="metadata167">
    <rdf:RDF>
      <cc:Work
         rdf:about="">
        <dc:format>image/svg+xml</dc:format>
        <dc:type
           rdf:resource="http://purl.org/dc/dcmitype/StillImage" />
        <dc:title></dc:title>
      </cc:Work>
    </rdf:RDF>
  </metadata>
  <defs
     id="defs165" />
  <sodipodi:namedview
     inkscape:current-layer="svg161"
     inkscape:window-maximized="1"
     inkscape:window-y="32"
     inkscape:window-x="0"
     inkscape:cy="-23.178511"
     inkscape:cx="155.24766"
     inkscape:zoom="1.265625"
     showgrid="false"
     id="namedview163"
     inkscape:window-height="1022"
     inkscape:window-width="1920"
     inkscape:pageshadow="2"
     inkscape:pageopacity="0"
     guidetolerance="10"
     gridtolerance="10"
     objecttolerance="10"
     borderopacity="1"
     bordercolor="#666666"
     pagecolor="#ffffff" />
  <style
     type="text/css"
     id="current-color-scheme">.ColorScheme-Text { color:#333333; }</style>
  <g
     id="22-22-system-log-out">
    <path
       id="path3"
       fill="currentColor"
       d="m11 13c-4.432 0-8 3.568-8 8s3.568 8 8 8 8-3.568 8-8-3.568-8-8-8zm0 1c3.878 0 7 3.122 7 7s-3.122 7-7 7-7-3.122-7-7 3.122-7 7-7zm1.293 3-4 4 4 4 0.70703-0.70703-3.293-3.293 3.293-3.293-0.70703-0.70703z"
       class="ColorScheme-Text" />
    <path
       id="path5"
       fill="none"
       d="m0 10v22h22v-22h-22z" />
  </g>
  <g
     transform="translate(54,96)"
     id="22-22-system-lock-screen">
    <path
       id="path8"
       fill="currentColor"
       d="m11 13c-2.216 0-4 1.784-4 4v4h-2v8h12v-8h-2v-4c0-2.216-1.784-4-4-4zm0 1c1.662 0 3 1.561 3 3.5v3.5h-6v-3.5c0-1.939 1.338-3.5 3-3.5zm-5 8h10v6h-10v-6z"
       class="ColorScheme-Text" />
    <path
       id="path10"
       fill="none"
       d="m0 10v22h22v-22h-22z" />
  </g>
  <g
     transform="translate(54,64)"
     id="22-22-system-reboot">
    <path
       id="path13"
       fill="currentColor"
       d="m11 13c-1.4417 0-2.803 0.36915-3.9688 1.0312l0.71875 0.6875 0.0625 0.0625 2.75 2.7812 0.71875-0.71875-2.5-2.4688c0.69833-0.2346 1.4391-0.375 2.2188-0.375 3.878 0 7 3.122 7 7 0 1.1625-0.28387 2.2559-0.78125 3.2188l0.75 0.75c0.66205-1.1658 1.0312-2.5271 1.0312-3.9688 0-4.432-3.568-8-8-8zm-6.9688 4.0312c-0.66205 1.1658-1.0312 2.5271-1.0312 3.9688 0 4.432 3.568 8 8 8 1.4417 0 2.803-0.36915 3.9688-1.0312l-3.5312-3.5312-0.6875 0.71875 2.4688 2.4688c-0.69833 0.2346-1.4391 0.375-2.2188 0.375-3.878 0-7-3.122-7-7 0-1.1625 0.28388-2.2559 0.78125-3.2188l-0.75-0.75z"
       class="ColorScheme-Text" />
    <path
       id="path15"
       fill="none"
       d="m0 10v22h22v-22h-22z" />
  </g>
  <g
     transform="translate(112,32)"
     id="22-22-system-save-session">
    <path
       id="path18"
       fill="currentColor"
       d="m3 13.004v16h16v-12.699h-7e-3l7e-3 -0.015-3.293-3.293-8e-3 0.015v-0.015h-12.699zm1 1.0018h3v5h8v-5h0.29298l2.707 2.707v11.293h-2v-7h-10v7h-2v-14zm4 0h3.9004v4h-3.9004v-4zm-1 8.0001h8v6h-8v-6z"
       class="ColorScheme-Text" />
    <path
       id="path20"
       fill="none"
       d="m0 10v22h22v-22h-22z" />
  </g>
  <g
     transform="translate(112,32)"
     id="system-save-session">
    <path
       id="path23"
       fill="currentColor"
       d="m26 4v24h24v-18l-6-6h-18zm1 1h5v8h11v-8h0.58594l5.4141 5.4141v16.586h-4v-8h-14v8h-4v-22zm6 0h6v7h-6v-7zm-1 15h12v7h-12v-7z"
       class="ColorScheme-Text" />
    <path
       id="path25"
       fill="none"
       d="m22 0v32h32v-32h-32z" />
  </g>
  <g
     transform="translate(0,32)"
     id="22-22-system-shutdown">
    <path
       id="path28"
       fill="currentColor"
       d="m10 13v7h2v-7h-2zm-1 0.26564c-3.4555 0.88458-6 3.9954-6 7.7343 0 4.432 3.568 8 8 8s8-3.568 8-8c0-3.739-2.5444-6.8498-6-7.7343v1.0371c2.895 0.85718 5 3.5169 5 6.6972 0 3.878-3.122 7-7 7s-7-3.122-7-7c0-3.1804 2.105-5.8401 5-6.6972v-1.0371z"
       class="ColorScheme-Text" />
    <path
       id="path30"
       fill="none"
       d="m0 10v22h22v-22h-22z" />
  </g>
  <g
     transform="translate(0,64)"
     id="22-22-system-suspend-hibernate">
    <path
       id="path33"
       fill="none"
       d="m0 10v22h22v-22z" />
    <path
       id="path35"
       fill="currentColor"
       d="m6.7891 13.412-0.86719 0.5 1.6465 2.8496-2.248-0.60156-0.25977 0.9668 3.2148 0.86133 1.5703 2.7168h-3.1387l-2.3535-2.3535-0.70703 0.70703 1.6465 1.6465h-3.293v1h3.293l-1.6465 1.6465 0.70703 0.70703 2.3535-2.3535h3.1328l-1.5664 2.7129-3.2148 0.86133 0.25781 0.9668 2.25-0.60352-1.6465 2.8516 0.86523 0.5 1.6465-2.8516 0.60352 2.25 0.96484-0.25977-0.86133-3.2168 1.8555-3.2109h0.005859l1.8574 3.2188-0.86133 3.2148 0.9668 0.25781 0.60156-2.248 1.6465 2.8516 0.86719-0.5-1.6465-2.8516 2.248 0.60156 0.25976-0.96484-3.2148-0.86133-1.5703-2.7188h3.1387l2.3535 2.3535 0.70703-0.70703-1.6465-1.6465h3.293v-1h-3.293l1.6465-1.6465-0.050782-0.058594h-1.3027l-1.707 1.7051h-3.1367l0.98438-1.7051h-1.1406l-0.99805 1.7031h-0.001953l-0.0039-2e-3 -1.8535-3.2129 0.86133-3.2148-0.9668-0.25977-0.60156 2.25zm10.714 1.8379h1.5031l-0.028216 0.75h-2.9781l1.5031-2.25h-1.5031v-0.75h3.0063zm-4.0047 2h1.5016l-0.02817 0.75h-2.975l1.5016-2.25h-1.5016v-0.75h3.0031z"
       class="ColorScheme-Text" />
  </g>
  <g
     transform="translate(0,96)"
     id="22-22-system-suspend">
    <path
       id="path38"
       fill="none"
       d="m0 10v22h21v-22z" />
    <path
       id="path40"
       fill="currentColor"
       d="m7.0463 14.049a7.995 8 0 0 0-4.0463 6.9512 7.995 8 0 0 0 7.995 8 7.995 8 0 0 0 6.937-4.043 7.995 8 0 0 0 0.0098-0.0059l-0.73782-0.73828a6.9956 7 0 0 1-0.0039 0.0059 6.9956 7 0 0 1-3.207 0.78125 6.9956 7 0 0 1-6.9956-7 6.9956 7 0 0 1 0.78662-3.2129zm-0.74367 1.7715a7.995 8 0 0 0-0.3045 2.1797 7.995 8 0 0 0 7.995 8 7.995 8 0 0 0 2.1861-0.3125 6.9956 7 0 0 1-5.1842 2.3125 6.9956 7 0 0 1-6.9956-7 6.9956 7 0 0 1 2.3032-5.1797zm5.4077 3.2797h1.7147l-0.03217 0.9h-3.3973l1.7147-2.7h-1.7147v-0.9h3.4294zm4.5732-2.4h1.7165l-0.03222 0.9h-3.4008l1.7165-2.7h-1.7165v-0.9h3.433z"
       class="ColorScheme-Text" />
  </g>
  <g
     transform="translate(54)"
     id="22-22-system-switch-user">
    <path
       id="path43"
       fill="currentColor"
       d="m11.398 12.388c-1.9895 0-3.2206 1.2635-3.3977 2.799v1.018l-2.151-1.5202-0.84897 0.66304 3.3959 2.6521 3.3959-2.6521-0.84897-0.66304-1.9428 1.5202v-1.018c0-1.0356 1.0646-1.7986 2.3975-1.799 1.3329 3.63e-4 2.621 0.76358 2.6025 1.799v0.813h1v-0.81333c0-1.5457-1.6128-2.7987-3.6023-2.7987zm2.6023 4.612c-1.1046 0-2 0.89543-2 2 0 1.1046 0.89543 2 2 2 1.1046 0 2-0.89543 2-2 0-1.1046-0.89543-2-2-2zm-6 2a2 2 0 0 0-2 2 2 2 0 0 0 2 2 2 2 0 0 0 2-2 2 2 0 0 0-2-2zm6.0156 3c-1.5188 0-2.7642 1.1631-2.9785 2.6719 0.58287 0.66214 0.96289 1.3281 0.96289 2.3281h4.4297c0.39322-0.54062 0.60674-1.1986 0.60742-1.875 1e-6 -1.7259-1.3522-3.125-3.0215-3.125zm-0.04883 1c1.1026 0 1.9961 0.83947 1.9961 1.875-4.5e-4 0.40586-0.14066 0.80063-0.40039 1.125h-2.8203c-0.085645-0.53851-0.35719-1.0199-0.74219-1.3984 0.14153-0.90529 0.9636-1.6016 1.9668-1.6016zm-5.9668 1a3 3.125 0 0 0-3 3.125 3 3.125 0 0 0 0.60547 1.875h4.793a3 3.125 0 0 0 0.60156-1.875 3 3.125 0 0 0-3-3.125zm0 1a2 2.25 0 0 1 2 2.25 2 2.25 0 0 1-0.11719 0.75h-3.7656a2 2.25 0 0 1-0.11719-0.75 2 2.25 0 0 1 2-2.25z"
       class="ColorScheme-Text" />
    <path
       id="path45"
       fill="none"
       d="m0 10v22h22v-22h-22z" />
  </g>
  <g
     transform="translate(54,32)"
     id="22-22-system-users">
    <path
       id="path48"
       fill="currentColor"
       d="m14 13c-1.662 0-3 1.338-3 3s1.338 3 3 3 3-1.338 3-3-1.338-3-3-3zm-6 3c-1.662 0-3 1.338-3 3s1.338 3 3 3 3-1.338 3-3-1.338-3-3-3zm6 4c-0.64635 0-1.256 0.13409-1.8184 0.36133l0.45508 0.91406c0.42782-0.1605 0.87776-0.27539 1.3633-0.27539 2.216 0 4 1.784 4 4h-3.5l0.5 1h4v-1c0-2.77-2.23-5-5-5zm-6 3c-2.77 0-5 2.23-5 5v1h10v-1c0-2.77-2.23-5-5-5zm0 1c2.216 0 4 1.784 4 4h-8c0-2.216 1.784-4 4-4z"
       class="ColorScheme-Text" />
    <path
       id="path50"
       fill="none"
       d="m0 10v22h22v-22h-22z" />
  </g>
  <g
     transform="translate(54,32)"
     id="system-users">
    <path
       id="path53"
       fill="currentColor"
       d="m42.5 4a4.5 4.5 0 0 0-4.5 4.5 4.5 4.5 0 0 0 4.5 4.5 4.5 4.5 0 0 0 4.5-4.5 4.5 4.5 0 0 0-4.5-4.5zm0 1a3.5 3.5 0 0 1 3.5 3.5 3.5 3.5 0 0 1-3.5 3.5 3.5 3.5 0 0 1-3.5-3.5 3.5 3.5 0 0 1 3.5-3.5zm-9 4c-2.4853 0-4.5 2.0147-4.5 4.5s2.0147 4.5 4.5 4.5 4.5-2.0147 4.5-4.5-2.0147-4.5-4.5-4.5zm0 1a3.5 3.5 0 0 1 3.5 3.5 3.5 3.5 0 0 1-3.5 3.5 3.5 3.5 0 0 1-3.5-3.5 3.5 3.5 0 0 1 3.5-3.5zm9 4c-0.88285 3e-3 -1.7583 0.17228-2.5859 0.5-0.06618 0.42368-0.17413 0.83977-0.32226 1.2422 0.90271-0.48731 1.8984-0.74142 2.9082-0.74219 3.5899 0 6.5 3.134 6.5 7h-8.3418c0.17032 0.32329 0.3255 0.65711 0.46484 1h8.877v-1c0-4.4183-3.3579-8-7.5-8zm-9 5c-4.1421 0-7.5 3.5817-7.5 8v1h15v-1c0-4.4183-3.3579-8-7.5-8zm0 1c3.5899 0 6.5 3.134 6.5 7h-13c0-3.866 2.9101-7 6.5-7z"
       class="ColorScheme-Text" />
    <path
       id="path55"
       fill="none"
       d="m22 0v32h32v-32h-32z" />
  </g>
  <g
     transform="translate(0,-32)"
     id="22-22-system-search">
    <path
       id="path58"
       fill="currentColor"
       d="m9 13c-3.324 0-6 2.676-6 6s2.676 6 6 6c1.4812 0 2.8306-0.53468 3.875-1.418l5.418 5.418 0.70703-0.70703-5.418-5.418c0.88329-1.0444 1.418-2.3938 1.418-3.875 0-3.324-2.676-6-6-6zm0 1c2.77 0 5 2.23 5 5s-2.23 5-5 5-5-2.23-5-5 2.23-5 5-5z"
       class="ColorScheme-Text" />
    <path
       id="path60"
       fill="none"
       d="m0 10v22h22v-22h-22z" />
  </g>
  <g
     transform="translate(0,-32)"
     id="system-search">
    <path
       id="path63"
       fill="currentColor"
       d="m35 4a9 9 0 0 0-9 9 9 9 0 0 0 9 9 9 9 0 0 0 5.9941-2.2988l8.2988 8.2988 0.70703-0.70703-8.3008-8.3008a9 9 0 0 0 2.3008-5.9922 9 9 0 0 0-9-9zm0 1a8 8 0 0 1 8 8 8 8 0 0 1-8 8 8 8 0 0 1-8-8 8 8 0 0 1 8-8z"
       class="ColorScheme-Text" />
    <path
       id="path65"
       fill="none"
       d="m22 0v32h32v-32h-32z" />
  </g>
  <g
     transform="translate(108)"
     id="system-user-list">
    <path
       id="path68"
       fill="currentColor"
       d="m45 9c-0.58947 0-1.133 0.17457-1.5938 0.46875 0.04318 0.46425 0.0075 0.92267-8e-3 1.3359 0.37711-0.50585 0.9708-0.80409 1.6018-0.80463 1.1046 0 2 0.89543 2 2s-0.89543 2-2 2c-1.0405-5.56e-4 -1.9068-0.7989-1.9922-1.8359-0.18434 0.41948-0.46466 0.77032-0.6956 1.0996-1e-3 0.0013-3e-3 0.0026-4e-3 0.0039 0.476 1.0197 1.4888 1.7324 2.6918 1.7324 1.6612 0 2.998-1.338 2.998-3s-1.3369-3-2.998-3zm-7 9c4.432 0 8 3.568 8 8h-16c0-4.432 3.568-8 8-8zm1e-5 -1c-4.9856 0-9 3.7166-9 8.3333v1.6667h18v-1.6667c0-4.6167-4.0144-8.3333-9-8.3333zm6.9765-1c-1.2619 4.88e-4 -2.3962 0.47884-3.2754 1.2402 0.38003 0.15615 0.76608 0.33575 1.1424 0.50783 5e-3 0.0025 9e-3 0.0052 0.0137 0.0078 0.61531-0.44993 1.3332-0.75586 2.1173-0.75586 2.2269 5e-5 4.0234 2.338 4.0234 4h-2.7285c0.19616 0.3391 0.30158 0.64811 0.449 1h3.2815v-1c0-2.7694-2.2402-4.9989-5.0215-5zm-6.9766-10c2.2092 0 4 1.7909 4 4s-1.7908 4-4 4-4-1.7909-4-4 1.7908-4 4-4zm0-1c-2.7614 0-5 2.2386-5 5s2.2386 5 5 5c2.3508 0 4.3227-1.6223 4.8571-3.8084 0.093361-0.38187 0.14286-0.78094 0.14286-1.1916 0-2.7614-2.2386-5-5-5zm-6.9766 11c1.2619 4.88e-4 2.3962 0.47884 3.2754 1.2402-0.40446 0.16292-0.80548 0.35541-1.1561 0.51561-0.61531-0.44991-1.3332-0.75584-2.1173-0.75584-2.2269 5e-5 -4.0234 2.338-4.0234 4h2.7285c-0.18697 0.33326-0.31833 0.6897-0.449 1h-3.2815v-1c0-2.7694 2.2402-4.9989 5.0215-5zm-0.02539-7c0.58947 0 1.133 0.17457 1.5938 0.46875-0.04841 0.46007-0.0093 0.92754 8e-3 1.3359-0.37711-0.50585-0.9708-0.80409-1.6018-0.80463-1.1046 0-2 0.89543-2 2s0.89543 2 2 2c1.0405-5.56e-4 1.9068-0.7989 1.9922-1.8359 0.18831 0.40268 0.47165 0.77011 0.6956 1.0996 1e-3 0.0013 3e-3 0.0026 4e-3 0.0039-0.476 1.0197-1.4888 1.7324-2.6918 1.7324-1.6612 0-2.998-1.338-2.998-3s1.3369-3 2.998-3z"
       class="ColorScheme-Text" />
    <path
       id="path70"
       fill="none"
       d="m22 0v32h32v-32z" />
  </g>
  <g
     transform="translate(112,64)"
     id="system-user-prompt">
    <path
       id="path73"
       fill="none"
       d="m22 0v32h32v-32z" />
    <path
       id="path75"
       fill="currentColor"
       d="m37 10.75v1.5h5v-1.5zm-4 0v1.5h3v-1.5zm-6 0v1.5h5v-1.5zm-1-1.75h24v5h-24zm-1-1v7h26v-7zm1 10h24v5h-24zm-1-1v7h26v-7zm3.5 2c-0.82843 0-1.5 0.67157-1.5 1.5s0.67157 1.5 1.5 1.5 1.5-0.67157 1.5-1.5-0.67157-1.5-1.5-1.5zm4 0c-0.82843 0-1.5 0.67157-1.5 1.5s0.67157 1.5 1.5 1.5 1.5-0.67157 1.5-1.5-0.67157-1.5-1.5-1.5zm4 0c-0.82843 0-1.5 0.67157-1.5 1.5s0.67157 1.5 1.5 1.5 1.5-0.67157 1.5-1.5-0.67157-1.5-1.5-1.5zm4 0c-0.82843 0-1.5 0.67157-1.5 1.5s0.67157 1.5 1.5 1.5 1.5-0.67157 1.5-1.5-0.67157-1.5-1.5-1.5z"
       class="ColorScheme-Text" />
  </g>
  <g
     stroke-width="1.4545"
     transform="matrix(.6875 0 0 .6875 96.875 74)"
     id="22-22-system-user-prompt">
    <path
       id="path78"
       fill="currentColor"
       d="m35.818 21.091a0.72727 0.72727 0 0 1-0.72727 0.72727 0.72727 0.72727 0 0 1-0.72727-0.72727 0.72727 0.72727 0 0 1 0.72727-0.72727 0.72727 0.72727 0 0 1 0.72727 0.72727zm-2.1818 0a0.72727 0.72727 0 0 1-0.72727 0.72727 0.72727 0.72727 0 0 1-0.72727-0.72727 0.72727 0.72727 0 0 1 0.72727-0.72727 0.72727 0.72727 0 0 1 0.72727 0.72727zm-2.1818 0a0.72727 0.72727 0 0 1-0.72727 0.72727 0.72727 0.72727 0 0 1-0.72727-0.72727 0.72727 0.72727 0 0 1 0.72727-0.72727 0.72727 0.72727 0 0 1 0.72727 0.72727zm-2.1818 0a0.72727 0.72727 0 0 1-0.72727 0.72727 0.72727 0.72727 0 0 1-0.72727-0.72727 0.72727 0.72727 0 0 1 0.72727-0.72727 0.72727 0.72727 0 0 1 0.72727 0.72727zm5.8182-10.909h2.9091v1.4545h-2.9091zm-2.9091 0h1.4545v1.4545h-1.4545zm-4.3636 0h2.9091v1.4545h-2.9091zm-2.9091 7.2727v7.2727h26.182v-7.2727zm1.4545 1.4545h23.273v4.3636h-23.273zm-1.4545-11.636v7.2727h26.182v-7.2727zm1.4545 1.4545h23.273v4.3636h-23.273z"
       class="ColorScheme-Text" />
    <path
       id="path80"
       fill="none"
       d="m22 0v32h32v-32z" />
  </g>
  <g
     stroke-width="1.4545"
     transform="matrix(.6875 0 0 .6875 92.875 10)"
     id="22-22-system-user-list">
    <path
       id="path83"
       fill="currentColor"
       d="m44.552 10.182c-0.37453 0-0.72044 0.10364-1.0284 0.26989 1.89e-4 0.0019-0.09527 0.05843-0.09498 0.06047 0.11476 1.4527-0.24945 2.3769-0.66509 3.0986 0.39606 0.5635 1.0484 0.93468 1.7885 0.93468 1.0258 0 1.8861-0.70799 2.1193-1.6619 0.04073-0.16664 0.06255-0.3407 0.06255-0.51989-1.4e-5 -1.205-0.97684-2.1818-2.1818-2.1818zm-13.098 0c0.37453 0 0.72044 0.10364 1.0284 0.26989-1.89e-4 0.0019 0.09527 0.05843 0.09498 0.06047-0.11476 1.4527 0.24946 2.3769 0.66509 3.0986-0.39606 0.5635-1.0484 0.93468-1.7885 0.93468-1.0258 0-1.8861-0.70799-2.1193-1.6619-0.04073-0.16664-0.06254-0.3407-0.06254-0.51989 1.4e-5 -1.205 0.97684-2.1818 2.1818-2.1818zm-4.4e-5 5.8182c1.2265 0 2.3022 0.56552 2.9602 1.4773-0.36926 0.19574-0.745 0.43622-1.071 0.63066-0.35836-0.42266-1.025-0.65339-1.8893-0.65339-1.3095 0-2.1818 0.9608-2.1818 2.9091h1.8182l-0.72727 1.4545h-2.5455l1e-6 -2.2102c1e-6 -2.093 1.622-3.608 3.6364-3.608zm13.091 1.4e-5c-1.2265 0-2.3022 0.56552-2.9602 1.4773 0.36926 0.19574 0.745 0.43622 1.071 0.63066 0.35836-0.42266 1.025-0.65339 1.8893-0.65339 1.3095 0 2.1818 0.99389 2.1818 2.9091h-1.8182l0.72727 1.4545h2.5455l2e-6 -2.2102c2e-6 -2.093-1.622-3.608-3.6364-3.608zm-6.5455 2.9091c2.9091 0 5.8182 1.4545 5.8182 5.8182h-11.636c0-4.3636 2.9091-5.8182 5.8182-5.8182zm0-1.4545c-4.2302 0-7.2612 2.9743-7.2698 7.2727l-0.0029 1.4545h14.545l-0.0029-1.4545c-0.00866-4.3213-3.0396-7.2727-7.2698-7.2727zm7.5e-5 -11.636c-2.8117 0-5.091 2.2793-5.091 5.0909s2.2793 5.0909 5.091 5.0909c2.3936 0 4.4013-1.6518 4.9455-3.8777 0.09498-0.38881 0.14547-0.79514 0.14547-1.2133 0-2.8116-2.2793-5.0909-5.091-5.0909z"
       class="ColorScheme-Text" />
    <path
       id="path85"
       fill="none"
       d="m22 0v32h32v-32z" />
  </g>
  <circle
     id="circle88"
     fill="url(#a)"
     r="0"
     cy="-66"
     cx="98" />
  <g
     id="g148"
     fill="currentColor">
    <g
       fill="currentColor"
       class="ColorScheme-Text"
       id="system-suspend">
      <path
         style="opacity:1"
         sodipodi:nodetypes="ssssscccccccc"
         id="path90"
         opacity="0.5"
         d="m -22,-75.5 c 5.2467,0 9.5,4.2533 9.5,9.5 0,5.2467 -4.2533,9.5 -9.5,9.5 -5.2467,0 -9.5,-4.2533 -9.5,-9.5 0,-5.2467 4.2533,-9.5 9.5,-9.5 z m 0,2 c -3.7574,-0.0022 -6.9365,2.7762 -7.4375,6.5 h 14.875 c -0.50098,-3.7238 -3.6801,-6.5022 -7.4375,-6.5 z m -7.4375,8.5 c 0.50098,3.7238 3.6801,6.5022 7.4375,6.5 3.7574,0.0022 6.9365,-2.7762 7.4375,-6.5 z" />
      <rect
         id="rect92"
         stroke-width="2"
         opacity="0"
         ry="0"
         rx="0"
         height="32"
         width="32"
         y="-82"
         x="-38" />
      <path
         id="path94"
         overflow="visible"
         opacity="0"
         color="#000000"
         d="m-22-82c-8.8276 0-16 7.1724-16 16s7.1724 16 16 16 16-7.1724 16-16-7.1724-16-16-16z" />
      <path
         id="path96"
         d="m-22-81a15 15 0 0 0-15 15 15 15 0 0 0 15 15 15 15 0 0 0 15-15 15 15 0 0 0-15-15zm0 1c7.7241 0 14 6.2759 14 14s-6.2759 14-14 14-14-6.2759-14-14 6.2759-14 14-14z" />
    </g>
    <g
       fill="currentColor"
       class="ColorScheme-Text"
       id="system-reboot">
      <path
         style="opacity:1"
         sodipodi:nodetypes="ccccscccccc"
         id="path99"
         opacity="0.5"
         d="m 17.998,-75.498 6.0703,3.6426 -6.0703,3.6426 v -2.4277 c -4.3272,3.76e-4 -6.493,5.2316 -3.4336,8.291 3.0594,3.0594 8.2906,0.89363 8.291,-3.4336 h 2.4277 c 7.52e-4,6.492 -7.8475,9.7423 -12.438,5.1523 -4.59,-4.59 -1.3396,-12.438 5.1523,-12.438 v -2.4297 z" />
      <rect
         id="rect101"
         stroke-width="2"
         opacity="0"
         ry="0"
         rx="0"
         height="32"
         width="32"
         y="-82"
         x="2" />
      <path
         id="path103"
         overflow="visible"
         opacity="0"
         color="#000000"
         d="m18-82c-8.8286 0-16 7.1714-16 16s7.1714 16 16 16c8.8275 0 16-7.1714 16-16 0-8.8275-7.1714-16-16-16z" />
      <path
         id="path105"
         d="m18-81a15 15 0 0 0-15 15 15 15 0 0 0 15 15 15 15 0 0 0 15-15 15 15 0 0 0-15-15zm0 1c7.725 0 14 6.276 14 14 0 7.725-6.276 14-14 14-7.725 0-14-6.275-14-14s6.275-14 14-14z" />
    </g>
    <g
       fill="currentColor"
       class="ColorScheme-Text"
       id="system-switch-user">
      <path
         style="opacity:1"
         sodipodi:nodetypes="cccccccsssscccccccsssscccccccc"
         id="path108"
         opacity="0.5"
         d="m 222.4805,-74.5 c 0.11772,-0.0041 0.23315,0.03321 0.32617,0.10547 l 4.5,3.5 c 0.25712,0.20018 0.25712,0.58888 0,0.78906 l -4.5,3.5 c -0.32834,0.25494 -0.80631,0.02116 -0.80664,-0.39453 v -2 h -7 c -0.277,0 -0.5,-0.223 -0.5,-0.5 v -2 c 0,-0.277 0.223,-0.5 0.5,-0.5 h 7 v -2 c -2.1e-4,-0.26869 0.21198,-0.4895 0.48047,-0.5 z m -3.0078,9 c 0.0156,-7.29e-4 0.0313,-7.29e-4 0.0469,0 0.26848,0.01051 0.48068,0.23132 0.48047,0.5 v 2 h 7 c 0.277,0 0.5,0.223 0.5,0.5 v 2 c 0,0.276 -0.223,0.5 -0.5,0.5 h -7 v 2 c -3.3e-4,0.41569 -0.4783,0.64947 -0.80664,0.39453 l -4.5,-3.5 c -0.2588,-0.20017 -0.2588,-0.59085 0,-0.79102 l 4.5,-3.498 c 0.0803,-0.06261 0.17767,-0.09939 0.2793,-0.10547 z" />
      <rect
         id="rect110"
         stroke-width="2"
         opacity="0"
         ry="0"
         rx="0"
         height="32"
         width="32"
         y="-82"
         x="205" />
      <circle
         id="circle112"
         opacity="0"
         r="16"
         cy="-66"
         cx="221" />
      <path
         id="path114"
         d="m221-81a15 15 0 0 0-15 15 15 15 0 0 0 15 15 15 15 0 0 0 15-15 15 15 0 0 0-15-15zm0 1a14 14 0 0 1 14 14 14 14 0 0 1-14 14 14 14 0 0 1-14-14 14 14 0 0 1 14-14z" />
    </g>
    <g
       fill="currentColor"
       class="ColorScheme-Text"
       id="system-shutdown">
      <path
         style="opacity:1"
         sodipodi:nodetypes="ccccccccsccccsssccccssccccsssccccccc"
         id="path117"
         opacity="0.5"
         d="m 58,-76.377 c 0.7163,-0.0027 1.2977,0.57862 1.2949,1.2949 v 7.7617 c 0.0017,0.71553 -0.57939,1.2957 -1.2949,1.293 -0.71553,0.0027 -1.2966,-0.57743 -1.2949,-1.293 v -7.7617 C 56.7024,-75.7984 57.28372,-76.3798 58,-76.377 Z m -4.123,3.1523 c 0.736,0 1.334,0.59894 1.334,1.3359 0,0.419 -0.22239,0.80578 -0.52539,1.0508 -0.096,0.077 -0.20922,0.15117 -0.32422,0.20117 -1.2532,0.82778 -2.1706,2.0748 -2.5879,3.5176 -0.008,0.028 -0.03106,0.05203 -0.03906,0.08203 -0.134,0.494 -0.20312,0.99916 -0.20312,1.5352 0,3.445 2.8968,6.2266 6.4688,6.2266 3.572,0 6.4688,-2.7816 6.4688,-6.2266 0,-0.537 -0.06812,-1.0421 -0.20312,-1.5371 -0.007,-0.027 -0.03206,-0.05308 -0.03906,-0.08008 -0.41726,-1.4428 -1.3347,-2.6898 -2.5879,-3.5176 -0.115,-0.049 -0.22822,-0.12512 -0.32422,-0.20312 -0.303,-0.244 -0.52539,-0.62983 -0.52539,-1.0488 0,-0.737 0.59798,-1.3359 1.334,-1.3359 0.204,0 0.39441,0.08111 0.56641,0.16211 l 0.4043,0.24414 c 1.984,1.309 3.3828,3.3302 3.8008,5.6992 0.019,0.11 0.06508,0.21127 0.08008,0.32227 0.047,0.359 0.08008,0.72275 0.08008,1.0938 0,4.822 -4.0537,8.7305 -9.0547,8.7305 -5.001,0 -9.0547,-3.9085 -9.0547,-8.7305 0,-0.418 0.06109,-0.81484 0.12109,-1.2148 0.01,-0.066 -0.011,-0.13617 0,-0.20117 0,-0.003 0.03906,0.002 0.03906,0 0.418,-2.369 1.8168,-4.3902 3.8008,-5.6992 l 0.4043,-0.24414 c 0.172,-0.082 0.36241,-0.16211 0.56641,-0.16211 z" />
      <rect
         id="rect119"
         style="paint-order:fill markers stroke"
         stroke-width="2"
         opacity="0"
         ry="0"
         rx="0"
         height="32"
         width="32"
         y="-82"
         x="42" />
      <path
         id="path121"
         overflow="visible"
         opacity="0"
         color="#000000"
         d="m58-82c-8.8286 0-16 7.1714-16 16s7.1714 16 16 16 16-7.1714 16-16-7.1714-16-16-16z" />
      <path
         id="path123"
         overflow="visible"
         opacity=".5"
         fill="none"
         color="#000000"
         d="m58-80.5c-8 0-14.5 6.5-14.5 14.5s6.5 14.5 14.5 14.5 14.5-6.5 14.5-14.5-6.5-14.5-14.5-14.5z" />
      <path
         id="path125"
         d="m58-81a15 15 0 0 0-15 15 15 15 0 0 0 15 15 15 15 0 0 0 15-15 15 15 0 0 0-15-15zm0 1c7.725 0 14 6.275 14 14s-6.275 14-14 14-14-6.275-14-14 6.275-14 14-14z" />
    </g>
    <g
       fill="currentColor"
       class="ColorScheme-Text"
       id="system-suspend-hibernate">
      <path
         style="opacity:1"
         sodipodi:nodetypes="cccccccssssccsscccccccccsssscccsccc"
         id="path128"
         opacity="0.5"
         d="m 98.66797,-72 h 6.6641 c 0.36883,-0.0016 0.66854,0.297189 0.66797,0.66602 v 2.666 l -4,3.334 h 3.332 c 0.36883,-0.0016 0.66854,0.297189 0.66797,0.66602 v 2 c 0,0.369 -0.29797,0.66797 -0.66797,0.66797 h -6.6641 c -0.37,0 -0.66797,-0.29797 -0.66797,-0.66797 v -2.666 l 4,-3.334 h -3.332 c -0.37,0 -0.66797,-0.29602 -0.66797,-0.66602 v -2 c -5.69e-4,-0.368831 0.299142,-0.667668 0.66797,-0.66602 z m -8,6 h 3.332 c 0.368828,-0.0016 0.668539,0.297189 0.66797,0.66602 v 1.334 l -2,2 h 1.332 c 0.368828,-0.0016 0.668539,0.297189 0.66797,0.66602 v 0.66602 c 0,0.369 -0.29797,0.66797 -0.66797,0.66797 h -3.332 c -0.37,0 -0.66797,-0.29797 -0.66797,-0.66797 v -1.332 l 2,-2 h -1.332 C 90.29897,-63.98194 90,-64.29791 90,-64.66791 v -0.66602 c -5.69e-4,-0.368831 0.299142,-0.667668 0.66797,-0.66602 z" />
      <path
         id="path130"
         style="paint-order:stroke markers fill"
         fill="#333"
         d="m98-81c-8.2843 0-15 6.7157-15 15s6.7157 15 15 15 15-6.7157 15-15-6.7157-15-15-15zm0 1c7.732 0 14 6.268 14 14s-6.268 14-14 14-14-6.268-14-14 6.268-14 14-14z" />
      <rect
         id="rect132"
         stroke-width="2"
         opacity="0"
         ry="0"
         rx="0"
         height="32"
         width="32"
         y="-82"
         x="82" />
      <circle
         id="circle134"
         opacity="0"
         r="16"
         cy="-66"
         cx="98" />
    </g>
    <g
       fill="currentColor"
       class="ColorScheme-Text"
       id="system-log-out">
      <path
         style="opacity:1"
         sodipodi:nodetypes="cccccccc"
         id="path137"
         opacity="0.5"
         d="m 137,-73 8,7.0273 -8,6.9727 v -5 h -9 v -3.9277 h 9 z" />
      <rect
         id="rect139"
         style="paint-order:fill markers stroke"
         stroke-width="2"
         opacity="0"
         ry="0"
         rx="0"
         height="32"
         width="32"
         y="-82"
         x="120" />
      <path
         id="path141"
         overflow="visible"
         opacity="0"
         color="#000000"
         d="m136-82c-8.8276 0-16 7.1724-16 16s7.1724 16 16 16 16-7.1724 16-16-7.1724-16-16-16z" />
      <path
         id="path143"
         overflow="visible"
         opacity=".35"
         fill="none"
         color="#000000"
         d="m136-80.5c-8 0-14.5 6.5-14.5 14.5s6.5 14.5 14.5 14.5 14.5-6.5 14.5-14.5-6.5-14.5-14.5-14.5z" />
      <path
         id="path145"
         d="m136-81a15 15 0 0 0-15 15 15 15 0 0 0 15 15 15 15 0 0 0 15-15 15 15 0 0 0-15-15zm0 1c7.7241 0 14 6.2759 14 14s-6.2759 14-14 14-14-6.2759-14-14 6.2759-14 14-14z" />
    </g>
  </g>
  <g
     fill="currentColor"
     class="ColorScheme-Text"
     id="system-lock-screen">
    <path
       sodipodi:nodetypes="ssscsssssssscssssccsss"
       id="path150"
       style="paint-order:stroke markers fill;opacity:1"
       opacity="0.5"
       fill="#333333"
       d="m 177.5,-74.5 h 1 c 2.216,0 4,1.8119 4,4.0625 V -67.5 h 1 c 0.554,0 1,0.446 1,1 v 7 c 0,0.554 -0.446,1 -1,1 h -11 c -0.554,0 -1,-0.446 -1,-1 v -7 c 0,-0.554 0.446,-1 1,-1 h 1 v -2.9375 c 0,-2.2506 1.784,-4.0625 4,-4.0625 z m 0,2 c -1.108,0 -2,0.892 -2,2 v 3 h 5 v -3 c 0,-1.108 -0.892,-2 -2,-2 z" />
    <rect
       id="rect152"
       style="paint-order:fill markers stroke"
       stroke-width="2"
       opacity="0"
       ry="0"
       rx="0"
       height="32"
       width="32"
       y="-82"
       x="162" />
    <path
       id="path154"
       overflow="visible"
       opacity="0"
       color="#000000"
       d="m178-82c-8.8276 0-16 7.1724-16 16s7.1724 16 16 16 16-7.1724 16-16-7.1724-16-16-16z" />
    <path
       id="path156"
       style="isolation:auto;mix-blend-mode:normal"
       solid-color="#000000"
       overflow="visible"
       opacity=".5"
       fill="none"
       color="#000000"
       d="m178-80.5c-8 0-14.5 6.5-14.5 14.5s6.5 14.5 14.5 14.5 14.5-6.5 14.5-14.5-6.5-14.5-14.5-14.5z" />
    <path
       id="path158"
       d="m178-81a15 15 0 0 0-15 15 15 15 0 0 0 15 15 15 15 0 0 0 15-15 15 15 0 0 0-15-15zm0 1c7.7241 0 14 6.2759 14 14s-6.2759 14-14 14-14-6.2759-14-14 6.2759-14 14-14z" />
  </g>
</svg>
