<?xml version="1.0" encoding="UTF-8" standalone="no"?>
<svg
   xmlns:dc="http://purl.org/dc/elements/1.1/"
   xmlns:cc="http://creativecommons.org/ns#"
   xmlns:rdf="http://www.w3.org/1999/02/22-rdf-syntax-ns#"
   xmlns:svg="http://www.w3.org/2000/svg"
   xmlns="http://www.w3.org/2000/svg"
   xmlns:xlink="http://www.w3.org/1999/xlink"
   xmlns:sodipodi="http://sodipodi.sourceforge.net/DTD/sodipodi-0.dtd"
   xmlns:inkscape="http://www.inkscape.org/namespaces/inkscape"
   inkscape:version="1.0 (4035a4fb49, 2020-05-01)"
   sodipodi:docname="virtualbox.svg"
   viewBox="0 0 64 64"
   version="1.1"
   image-rendering="optimizeSpeed"
   enable-background="new 0 0 1024 1024"
   height="64"
   width="64"
   id="Calculator">
  <metadata
     id="metadata53">
    <rdf:RDF>
      <cc:Work
         rdf:about="">
        <dc:format>image/svg+xml</dc:format>
        <dc:type
           rdf:resource="http://purl.org/dc/dcmitype/StillImage" />
        <dc:title></dc:title>
      </cc:Work>
    </rdf:RDF>
  </metadata>
  <sodipodi:namedview
     inkscape:current-layer="Calculator"
     inkscape:window-maximized="1"
     inkscape:window-y="36"
     inkscape:window-x="0"
     inkscape:cy="38.113843"
     inkscape:cx="-13.125566"
     inkscape:zoom="2.9804688"
     showgrid="false"
     id="namedview51"
     inkscape:window-height="932"
     inkscape:window-width="1920"
     inkscape:pageshadow="2"
     inkscape:pageopacity="0"
     guidetolerance="10"
     gridtolerance="10"
     objecttolerance="10"
     borderopacity="1"
     bordercolor="#666666"
     pagecolor="#ffffff" />
  <defs
     id="defs26">
    <linearGradient
       gradientUnits="userSpaceOnUse"
       gradientTransform="matrix(.04938 0 0 .047429 27.948 -18.091)"
       y2="828.58"
       y1="1517.5"
       x2="510.56"
       x1="98.123"
       id="c">
      <stop
         id="stop2"
         offset="0"
         stop-color="#7ccbea" />
      <stop
         id="stop4"
         offset="1"
         stop-color="#00b9ff" />
    </linearGradient>
    <linearGradient
       xlink:href="#c"
       gradientUnits="userSpaceOnUse"
       gradientTransform="matrix(0.035272,0,0,0.033878,29.106,-3.7792)"
       y2="828.58"
       y1="1517.5"
       x2="510.56"
       x1="98.123"
       id="i" />
    <linearGradient
       xlink:href="#c"
       gradientUnits="userSpaceOnUse"
       y2="19"
       y1="46"
       x2="40"
       x1="23"
       id="h" />
    <linearGradient
       gradientUnits="userSpaceOnUse"
       y2="16"
       y1="49"
       x2="43"
       x1="22"
       id="g">
      <stop
         id="stop9"
         offset="0"
         stop-color="#00b2ed" />
      <stop
         id="stop11"
         offset="1"
         stop-color="#009bdb" />
    </linearGradient>
    <linearGradient
       xlink:href="#c"
       gradientUnits="userSpaceOnUse"
       gradientTransform="matrix(0.035272,0,0,0.033878,29.106,-3.7792)"
       y2="819.98"
       y1="1469.4"
       x2="422.28"
       x1="25.36"
       id="b" />
    <filter
       color-interpolation-filters="sRGB"
       height="1.1129"
       width="1.128"
       y="-.056471"
       x="-.064"
       id="k">
      <feGaussianBlur
         id="feGaussianBlur15"
         stdDeviation="0.8" />
    </filter>
    <filter
       color-interpolation-filters="sRGB"
       height="1.1127"
       width="1.1283"
       y="-.056344"
       x="-.064163"
       id="j">
      <feGaussianBlur
         id="feGaussianBlur18"
         stdDeviation="0.96245117" />
    </filter>
    <linearGradient
       gradientUnits="userSpaceOnUse"
       gradientTransform="matrix(3.7796,0,0,3.7796,-120.04512,1.9984759)"
       y2="1.852"
       y1="15.081"
       x2="7.9373"
       x1="7.9373"
       id="linearGradient862-3">
      <stop
         id="stop21"
         offset="0"
         stop-color="#f1efeb" />
      <stop
         id="stop23"
         offset="1"
         stop-color="#fdfcfc" />
    </linearGradient>
    <linearGradient
       y2="828.58"
       x2="510.56"
       y1="1517.5"
       x1="98.123"
       gradientTransform="matrix(0.035272,0,0,0.033878,29.106,-3.7792)"
       gradientUnits="userSpaceOnUse"
       id="linearGradient878"
       xlink:href="#c"
       inkscape:collect="always" />
  </defs>
  <g
     transform="matrix(0.91666664,0,0,0.91666664,-2.1486991,-2.8359532)"
     id="g888">
    <g
       fill-rule="evenodd"
       id="g44"
       transform="matrix(1.2501489,0,0,1.2501489,-2.7516374,-2.0019057)">
      <path
         d="m 32,15 -15,9 v 16 l 15,9 15,-9 V 24 Z"
         fill="url(#i)"
         stroke="url(#g)"
         stroke-width="12"
         id="path34"
         style="fill:url(#linearGradient878);stroke:url(#g)" />
      <path
         d="M 32,11.502 30.457,12.42778 14,22.30078 v 19.398 l 18,10.799 18,-10.799 v -19.398 z m 0,6.9961 12,7.2012 v 12.602 L 32,45.5025 20,38.3013 v -12.602 z"
         color="#000000"
         color-rendering="auto"
         dominant-baseline="auto"
         enable-background="accumulate"
         filter="url(#j)"
         image-rendering="auto"
         opacity="0.15"
         shape-rendering="auto"
         solid-color="#000000"
         style="font-variant-ligatures:normal;font-variant-position:normal;font-variant-caps:normal;font-variant-numeric:normal;font-variant-alternates:normal;font-feature-settings:normal;text-indent:0;text-decoration:none;text-decoration-line:none;text-decoration-style:solid;text-decoration-color:#000000;text-transform:none;text-orientation:mixed;white-space:normal;shape-padding:0;isolation:auto;mix-blend-mode:normal"
         id="path36" />
      <path
         d="m 32,15 -15,9 v 16 l 15,9 15,-9 V 24 Z"
         fill="url(#b)"
         opacity="0.6"
         stroke="url(#h)"
         stroke-width="6"
         id="path38"
         style="fill:url(#b);stroke:url(#h)" />
      <path
         d="m 32,15 -15,9 v 16 l 15,9 15,-9 V 24 Z"
         filter="url(#k)"
         opacity="0.15"
         stroke-width="0.034568"
         id="path40" />
      <path
         d="m 32,15 -15,9 v 16 l 15,9 15,-9 V 24 Z"
         fill="url(#i)"
         stroke-width="0.034568"
         id="path42"
         style="fill:url(#i)" />
    </g>
    <g
       transform="matrix(0.23902846,-0.00376257,-0.06444517,0.21062508,26.561853,24.990058)"
       fill="#ffffff"
       fill-opacity="0.80102"
       id="g48">
      <path
         d="m 88.947,67.734 c 0,1.544 -1.252,2.802 -2.801,2.802 H 68.989 c -1.401,0 -2.583,-1.028 -2.763,-2.419 L 63.193,46.348 57.07,102.361 c -0.147,1.319 -1.216,2.375 -2.561,2.474 -0.079,0.005 -0.145,0.013 -0.229,0.013 -1.251,0 -2.354,-0.822 -2.685,-2.043 l -9.126,-32.46 -8.988,17.078 c -0.539,1.028 -1.667,1.653 -2.813,1.479 -1.159,-0.139 -2.101,-0.976 -2.388,-2.101 L 23.905,69.311 H 2.803 C 1.262,69.312 0,68.052 0,66.51 0,64.961 1.262,63.708 2.803,63.708 h 23.285 c 1.284,0 2.412,0.875 2.72,2.123 l 3.124,12.487 8.843,-16.789 c 0.528,-1.023 1.631,-1.638 2.764,-1.488 1.137,0.121 2.089,0.925 2.412,2.024 l 7.117,25.319 7.018,-64.09 c 0.149,-1.401 1.321,-2.465 2.743,-2.487 1.576,0.134 2.617,1.026 2.813,2.426 l 5.79,41.699 h 14.719 c 1.544,0.001 2.796,1.26 2.796,2.802 z m 14.824,-2.801 h -8.862 c -1.54,0 -2.802,1.26 -2.802,2.802 0,1.544 1.262,2.802 2.802,2.802 h 8.862 c 1.537,0 2.802,-1.258 2.802,-2.802 0,-1.543 -1.265,-2.802 -2.802,-2.802 z m 19.083,0 h -9.431 c -1.537,0 -2.802,1.26 -2.802,2.802 0,1.544 1.265,2.802 2.802,2.802 h 9.431 c 1.536,0 2.802,-1.258 2.802,-2.802 0,-1.543 -1.266,-2.802 -2.802,-2.802 z"
         fill="#ffffff"
         fill-opacity="0.80102"
         id="path46" />
    </g>
  </g>
</svg>
