<?xml version="1.0" encoding="UTF-8" standalone="no"?>
<!-- Svg Vector Icons : http://www.onlinewebfonts.com/icon -->

<svg
   xmlns:dc="http://purl.org/dc/elements/1.1/"
   xmlns:cc="http://creativecommons.org/ns#"
   xmlns:rdf="http://www.w3.org/1999/02/22-rdf-syntax-ns#"
   xmlns:svg="http://www.w3.org/2000/svg"
   xmlns="http://www.w3.org/2000/svg"
   xmlns:xlink="http://www.w3.org/1999/xlink"
   xmlns:sodipodi="http://sodipodi.sourceforge.net/DTD/sodipodi-0.dtd"
   xmlns:inkscape="http://www.inkscape.org/namespaces/inkscape"
   version="1.1"
   x="0px"
   y="0px"
   viewBox="0 0 1000 1000"
   enable-background="new 0 0 1000 1000"
   xml:space="preserve"
   id="svg14"
   sodipodi:docname="spinner.svg"
   inkscape:version="0.92.4 (5da689c313, 2019-01-14)"><defs
   id="defs18"><linearGradient
     inkscape:collect="always"
     id="linearGradient832"><stop
       style="stop-color:#00ccff;stop-opacity:1"
       offset="0"
       id="stop828" /><stop
       style="stop-color:#7f2aff;stop-opacity:1"
       offset="1"
       id="stop830" /></linearGradient><linearGradient
     inkscape:collect="always"
     xlink:href="#linearGradient832"
     id="linearGradient850"
     x1="5148.7173"
     y1="1091.5413"
     x2="6673.4473"
     y2="1091.5413"
     gradientUnits="userSpaceOnUse" /></defs><sodipodi:namedview
   pagecolor="#ffffff"
   bordercolor="#666666"
   borderopacity="1"
   objecttolerance="10"
   gridtolerance="10"
   guidetolerance="10"
   inkscape:pageopacity="0"
   inkscape:pageshadow="2"
   inkscape:window-width="1920"
   inkscape:window-height="1013"
   id="namedview16"
   showgrid="false"
   inkscape:zoom="0.236"
   inkscape:cx="-1021.1864"
   inkscape:cy="500"
   inkscape:window-x="0"
   inkscape:window-y="0"
   inkscape:window-maximized="1"
   inkscape:current-layer="svg14" />
<metadata
   id="metadata2"> Svg Vector Icons : http://www.onlinewebfonts.com/icon <rdf:RDF><cc:Work
     rdf:about=""><dc:format>image/svg+xml</dc:format><dc:type
       rdf:resource="http://purl.org/dc/dcmitype/StillImage" /></cc:Work></rdf:RDF></metadata>
<g
   id="g12"><g
     transform="translate(0.000000,512.000000) scale(0.100000,-0.100000)"
     id="g10"><path
       d="M4615.6,5012.1c-30.7-3.8-140-17.3-239.8-28.8c-1049.2-118.9-2146.4-667.5-2896.4-1448.2C704.5,2727.6,230.7,1705.3,115.6,596.6C83,283.9,104.1-370.2,154-665.6C336.2-1734,810-2639.3,1577.3-3387.4c780.7-761.5,1718.6-1216.1,2808.1-1361.9c308.8-42.2,918.8-42.2,1227.6,0c1129.8,151.5,2109.9,642.6,2896.4,1450.1C9186.4-2604.8,9618-1793.4,9804.1-865c74.8,374,95.9,588.8,95.9,982.1c0,774.9-164.9,1486.6-502.6,2165.6c-757.7,1528.7-2234.6,2554.9-3916.8,2719.9C5286.9,5021.7,4751.8,5027.5,4615.6,5012.1z M5402,4544.1c1540.3-143.9,2904-1083.7,3575.4-2461c320.3-654.1,462.3-1256.4,462.3-1960.3c0-498.7-71-930.3-232.1-1417.5C8666.6-2923.2,7214.6-4099,5497.9-4296.6c-222.5-26.9-774.9-26.9-997.4,0c-1505.7,174.6-2825.4,1104.8-3491,2462.9C175.1-132.3,520.4,1922,1863.1,3258.9C2801,4195,4097.7,4664.9,5402,4544.1z"
       id="path4"
       style="fill-opacity:1;fill:#00ccff" /><path
       d="M4778.6,3372.1c-1294.7-71-2455.2-966.7-2873.3-2213.5c-341.4-1020.4-157.3-2152.2,493-3011.5c126.6-168.8,410.5-456.5,586.9-594.6c773-604.2,1783.9-832.5,2733.3-615.7c644.5,147.7,1181.6,454.6,1645.8,941.8c936,980.2,1162.4,2439.9,569.7,3663.6c-443.1,915-1283.2,1567.1-2284.5,1774.3C5415.4,3366.4,5070.2,3387.5,4778.6,3372.1z M5553.5,2157.9c387.5-117,669.4-280,934.1-546.7c544.7-546.7,748.1-1296.7,554.3-2044.7c-57.5-224.4-241.7-583.1-393.2-771.1c-423.9-527.5-1064.6-817.1-1734-786.4c-374,17.3-696.3,111.3-989.8,289.6c-374,224.4-629.1,502.5-815.2,884.3c-188,381.7-257,748.1-212.9,1141.3c53.7,508.3,249.4,918.8,604.2,1277.5c293.5,295.4,657.9,496.8,1055,583.1c145.8,32.6,228.3,36.4,500.6,30.7C5342.5,2209.7,5403.9,2202.1,5553.5,2157.9z"
       id="path6"
       style="fill-opacity:1;fill:#4040c2" /><path
       d="M5678.2,1824.2c-542.8-180.3-709.7-867-305-1269.8c491-493,1342.7-117,1298.6,575.4c-13.4,218.7-71,349.1-222.5,500.6c-94,94-155.4,138.1-241.7,170.7C6050.3,1860.6,5822.1,1870.2,5678.2,1824.2z"
       id="path8"
       style="fill-opacity:1.0;fill:url(#linearGradient850)" /></g></g>
</svg>